<?xml version="1.0" encoding="UTF-8"?>
<svg id="Layer_1" xmlns="http://www.w3.org/2000/svg" version="1.1" viewBox="0 0 601.6 503.4">
  <!-- Generator: Adobe Illustrator 30.0.0, SVG Export Plug-In . SVG Version: 2.1.1 Build 123)  -->
  <defs>
    <style>
      .st0 {
        fill: #d71920;
      }

      .st1 {
        fill: #fff;
      }
    </style>
  </defs>
  <g id="oph1Wn.tif">
    <g>
      <path class="st0" d="M533.8,74.3c-2.3,9.2-8.7,14.6-16.4,19.8-18.3-4.4-37-2.2-56.5-.1,3.2-6.6,12.7-8.9,10.2-18.1-2.8-4.6-8-5.2-12.7-5.6-17-1.4-34-1.3-50.7,2-52.3,10.1-99,32.4-141,64.8-14.3,11.1-27.8,23.2-37.9,38.4-3.9,5.8-7.2,12.3-9.6,18.8-3.7,9.8.7,19,10.6,22.3,6.7,2.2,13.7,3.9,20.7,4.6,23.5,2.6,47,1,70.5-1.1,36.6-3.4,72.4-10.5,107.8-20.3,13.7-3.8,27.2-8,40.7-12.4,7.9-2.6,15.7-4.5,24.1-3.9,5.7.4,11.5,0,18.4,0-1.5,1.4-2.1,2.3-2.9,2.6-29.6,11.2-59.1,23.1-89,33.4-34.1,11.7-69.2,20.4-104.9,25.8-23,3.5-46.2,5.3-69.3,7.5-27.6,2.7-55.2,3.6-82.9,2.8-21-.6-42.1-1.9-62.5-8-9.5-2.9-18.4-6.6-25.6-13.9-7.8-7.9-8-17.5-5.3-26.7,2.1-7.1,6.4-13.8,10.7-20,19.8-28.8,46.6-49.8,76.3-67.3,38.5-22.7,79.7-38.7,123-48.9,28.5-6.7,57.3-11.2,86.5-14.1,34.4-3.4,68.9-3.8,103.4-2.5,13.3.5,26.7,2.6,39.9,4.6,5.3.8,10.5,3,15.6,4.9,4.6,1.7,7.9,4.9,8.9,10.5Z"/>
      <path class="st0" d="M305.5,147.4c3-1.7,5-2.9,7.4-4.3v-23c-2.1-1.2-4.3-2.5-6.8-3.9,1.8-4.7,5.7-3.5,8.6-3.7,17-1.5,25.4-.5,30.3,3.3-2.4,1.4-4.6,2.8-7.1,4.3v6.8h27.4c.2-2.4.3-4.5.5-7-2.5-1.2-4.9-2.3-7.9-3.8.8-1.1,1.4-2.7,2.3-2.9,11.9-2.7,23.7-3.4,35.5.4.4.1.6.8,1.3,1.8-2,1.2-4,2.4-6.3,3.8v23.9c1.8,1,3.9,2.1,6.2,3.3-.5.8-.8,1.9-1.3,2.1-11.8,3.1-23.7,2.6-35.5.7-.7-.1-1.4-.7-3-1.6,3.4-2,5.7-3.3,8.3-4.9v-7.6c-9-1-17.9-.7-27.2-.2-.2,2.9-.4,5.3-.6,7.6,2.8,1.5,5.4,2.8,8,4.2-1.6,3.5-4.3,3.5-7,3.6-17.9,1.2-27,.5-33.1-3.2Z"/>
      <path class="st0" d="M364.6,200.7c2.7,1.4,5.1,2.6,8.1,4.2-3.7,4.8-8.6,3.1-12.8,3.4-4.6.3-9.3.3-14,0-4.4-.3-9.3,1.4-13.7-3.4,2.5-1.5,4.7-2.8,7.8-4.6,0-3,0-6.8,0-10.6s0-7.6,0-11.2c-4.7-2.5-8.1-.6-11.4,1.2-4.6,2.5-9.4,2.7-14.4,2-1.2-.2-2.3-1.1-3.4-1.7,1.6-7.6,3.3-9.6,9.8-10,7.4-.4,14.8,0,22.2-.2,9.8-.2,19.7-.7,29.5-.8,4.9,0,9.8.5,14.6,1.4,4.1.7,6.7,3.4,6.8,8.3-5.3,4.6-10.9,3.8-16.6,1.2-3.7-1.7-7.1-4.2-11.8-2.1-.2.9-.7,1.9-.7,2.9,0,6.5,0,13.1,0,19.7Z"/>
    </g>
  </g>
  <g>
    <path class="st1" d="M126.3,382.2h-56v-95.6h56v19.6h-35.2v19h33.1v17.9h-33.1v19.5h35.2v19.6Z"/>
    <path class="st1" d="M192.6,382.2h-54.6v-95.6h20.8v76h33.8v19.6Z"/>
    <path class="st1" d="M255.4,382.2v-38.5h-32.5v38.5h-20.8v-95.6h20.8v37.5h32.5v-37.5h20.7v95.6h-20.7Z"/>
    <path class="st1" d="M366.9,334.4c0,30.5-15.6,49.4-40.3,49.4s-40.4-19-40.4-49.4,15.6-49.5,40.4-49.5,40.3,19,40.3,49.5ZM307.4,334.4c0,18.2,7.5,29.7,19.2,29.7s19.2-11.5,19.2-29.7-7.6-29.8-19.2-29.8-19.2,11.5-19.2,29.8Z"/>
    <path class="st1" d="M410.2,286.6c24.7,0,39.2,16.8,39.2,47.3s-14.5,48.4-39.2,48.4h-33.2v-95.6h33.2ZM397.8,362.6h9.7c13.5,0,20.8-9.6,20.8-28.7s-7.6-27.7-20.8-27.7h-9.7v56.4Z"/>
    <path class="st1" d="M504,361.2h-26.7l-5.2,21h-21.2l27.5-95.6h25.4l27.5,95.6h-22.1l-5.2-21ZM481.3,343.7h18.6l-9.1-36.9h-.5l-9.1,36.9Z"/>
  </g>
  <g>
    <path class="st1" d="M78.4,449.2v-28.7h-10v-7.4h29.1v7.4h-10v28.7h-9.2Z"/>
    <path class="st1" d="M110.6,449.2h-9.2v-36.2h15.5c9,0,13.9,4.5,13.9,11.9s-2.2,8.5-6.2,10.2l7.2,14h-10.3l-6.2-12.7h-4.7v12.7ZM110.6,430.3h5.4c3.4,0,5.4-2,5.4-5.1s-2.1-5.2-5.4-5.2h-5.4v10.3Z"/>
    <path class="st1" d="M156.8,441.3h-11.8l-2.3,7.9h-9.4l12.2-36.2h11.2l12.2,36.2h-9.8l-2.3-7.9ZM146.8,434.7h8.2l-4-13.9h-.2l-4,13.9Z"/>
    <path class="st1" d="M187,413.1c10.9,0,17.3,6.3,17.3,17.9s-6.4,18.3-17.3,18.3h-14.7v-36.2h14.7ZM181.5,441.8h4.3c6,0,9.2-3.6,9.2-10.8s-3.4-10.5-9.2-10.5h-4.3v21.3Z"/>
    <path class="st1" d="M233.6,449.2h-24.8v-36.2h24.8v7.4h-15.6v7.2h14.7v6.8h-14.7v7.4h15.6v7.4Z"/>
    <path class="st1" d="M271.3,446.6c-2.5,2.1-6.5,3.3-11,3.3-7.9,0-12.9-3.8-12.9-10s2-6.9,6.5-9.4c.2-.1,1.7-1,1.8-1-3.3-3.3-4.5-5.6-4.5-8.2,0-5,4.6-8.6,10.8-8.6s10.6,3.4,10.6,8.4-2.4,6.8-7.1,9.5l5.8,6.2c.7-1.2,1.1-3,1.1-5.4v-2.4h7.1v3c0,3.8-1.2,7.5-3.1,10l6.9,7.2h-9.5l-2.5-2.7ZM255.6,439.1c0,2.8,2.3,4.7,5.7,4.7s4.5-.8,5.6-2.1l-7.3-7.8c-.3.1-.7.3-.9.5-2.2,1.4-3.1,2.8-3.1,4.7ZM265.6,421.7c0-2-1.4-3.5-3.5-3.5s-3.5,1.5-3.5,3.5.8,2.8,3.1,4.9c2.7-1.4,3.9-2.9,3.9-4.9Z"/>
    <path class="st1" d="M303.1,438.7c.3,2.5,3.1,4.1,6.5,4.1s5.9-1.6,5.9-3.8-1.5-3-5.6-3.8l-4.7-.9c-6.7-1.3-10.1-4.9-10.1-10.4s6-11.5,14.4-11.5,14.4,4.4,14.5,11.2h-8.5c-.2-2.6-2.6-4.2-5.9-4.2s-5.3,1.5-5.3,3.7,1.6,3,5.4,3.8l4.7.9c7.1,1.4,10.3,4.6,10.3,10.3s-5.9,11.8-15.3,11.8-14.9-4.1-15-11.1h8.7Z"/>
    <path class="st1" d="M338.2,435.4c0,4.2,2.3,6.7,6.4,6.7s6.4-2.5,6.4-6.7v-22.3h9.2v23.3c0,8.1-6.2,13.5-15.6,13.5s-15.6-5.3-15.6-13.5v-23.3h9.2v22.3Z"/>
    <path class="st1" d="M381.2,413.1c7.8,0,13,5,13,12.8s-5.5,12.8-13.6,12.8h-5.9v10.6h-9.2v-36.2h15.7ZM374.8,431.7h4c3.9,0,6.2-2,6.2-5.8s-2.3-5.8-6.2-5.8h-4v11.6Z"/>
    <path class="st1" d="M414,413.1c7.8,0,13,5,13,12.8s-5.5,12.8-13.6,12.8h-5.9v10.6h-9.2v-36.2h15.7ZM407.5,431.7h4c3.9,0,6.2-2,6.2-5.8s-2.3-5.8-6.2-5.8h-4v11.6Z"/>
    <path class="st1" d="M455.2,449.2h-24.2v-36.2h9.2v28.7h15v7.4Z"/>
    <path class="st1" d="M459.5,449.2v-36.2h9.2v36.2h-9.2Z"/>
    <path class="st1" d="M498.9,449.2h-24.8v-36.2h24.8v7.4h-15.6v7.2h14.7v6.8h-14.7v7.4h15.6v7.4Z"/>
    <path class="st1" d="M511.7,438.7c.3,2.5,3.1,4.1,6.5,4.1s5.9-1.6,5.9-3.8-1.5-3-5.6-3.8l-4.7-.9c-6.7-1.3-10.1-4.9-10.1-10.4s6-11.5,14.4-11.5,14.4,4.4,14.5,11.2h-8.5c-.2-2.6-2.6-4.2-5.9-4.2s-5.3,1.5-5.3,3.7,1.6,3,5.4,3.8l4.7.9c7.1,1.4,10.3,4.6,10.3,10.3s-5.9,11.8-15.3,11.8-14.9-4.1-15-11.1h8.7Z"/>
  </g>
</svg>