<?xml version="1.0" encoding="UTF-8"?>
<svg id="Layer_1" xmlns="http://www.w3.org/2000/svg" version="1.1" viewBox="0 0 591.4 504.1">
  <!-- Generator: Adobe Illustrator 30.0.0, SVG Export Plug-In . SVG Version: 2.1.1 Build 123)  -->
  <defs>
    <style>
      .st0 {
        fill: #d71920;
      }
    </style>
  </defs>
  <g id="oph1Wn.tif">
    <g>
      <path class="st0" d="M531.5,72.4c-2.4,9.3-8.8,14.8-16.6,20.1-18.5-4.5-37.5-2.2-57.2-.1,3.3-6.7,12.8-9,10.3-18.3-2.8-4.7-8.1-5.3-12.9-5.7-17.2-1.4-34.4-1.3-51.4,2-52.9,10.2-100.2,32.8-142.7,65.6-14.5,11.2-28.2,23.4-38.4,38.8-3.9,5.9-7.2,12.4-9.7,19.1-3.7,10,.7,19.2,10.8,22.6,6.8,2.3,13.9,3.9,21,4.7,23.8,2.6,47.6,1,71.4-1.2,37-3.4,73.3-10.6,109.1-20.5,13.9-3.8,27.6-8.1,41.2-12.6,8-2.6,15.9-4.5,24.4-4,5.8.4,11.6,0,18.7,0-1.6,1.4-2.1,2.3-2.9,2.6-30,11.4-59.8,23.4-90.1,33.8-34.6,11.9-70.1,20.6-106.2,26.1-23.2,3.5-46.7,5.3-70.2,7.6-27.9,2.7-55.9,3.6-83.9,2.8-21.3-.6-42.6-1.9-63.3-8.1-9.6-2.9-18.6-6.7-25.9-14.1-7.9-8-8.1-17.7-5.3-27,2.1-7.2,6.5-14,10.9-20.3,20-29.1,47.1-50.4,77.3-68.2,39-22.9,80.6-39.2,124.5-49.5,28.8-6.8,58-11.3,87.6-14.3,34.9-3.5,69.7-3.8,104.7-2.5,13.5.5,27,2.7,40.4,4.7,5.4.8,10.6,3,15.8,5,4.6,1.8,8,5,9,10.6Z"/>
      <path class="st0" d="M300.5,146.5c3-1.7,5.1-2.9,7.5-4.3v-23.3c-2.1-1.2-4.4-2.5-6.9-3.9,1.8-4.8,5.8-3.5,8.7-3.7,17.2-1.5,25.7-.5,30.7,3.4-2.4,1.5-4.7,2.8-7.2,4.3v6.9h27.7c.2-2.4.3-4.5.5-7.1-2.6-1.2-5-2.4-8-3.8.8-1.1,1.4-2.7,2.3-2.9,12-2.7,24-3.4,36,.4.4.1.7.8,1.3,1.8-2,1.2-4,2.4-6.4,3.9v24.2c1.8,1,4,2.1,6.3,3.4-.5.9-.8,1.9-1.3,2.1-11.9,3.2-23.9,2.6-36,.7-.7-.1-1.4-.7-3-1.6,3.5-2,5.8-3.4,8.4-4.9v-7.7c-9.2-1-18.1-.7-27.5-.2-.2,3-.4,5.4-.6,7.7,2.9,1.5,5.4,2.8,8.1,4.2-1.6,3.5-4.3,3.5-7.1,3.7-18.1,1.2-27.4.5-33.5-3.2Z"/>
      <path class="st0" d="M360.2,200.4c2.8,1.4,5.1,2.7,8.2,4.3-3.7,4.9-8.7,3.1-13,3.4-4.7.3-9.4.3-14.1,0-4.5-.3-9.4,1.5-13.9-3.4,2.5-1.5,4.7-2.8,7.9-4.7,0-3.1,0-6.9,0-10.7s0-7.7,0-11.4c-4.7-2.5-8.2-.6-11.6,1.2-4.6,2.5-9.5,2.8-14.5,2.1-1.2-.2-2.3-1.1-3.4-1.7,1.6-7.7,3.4-9.7,10-10.1,7.5-.4,15,0,22.5-.2,9.9-.2,19.9-.7,29.8-.8,4.9,0,9.9.5,14.8,1.4,4.2.7,6.7,3.5,6.9,8.4-5.3,4.6-11.1,3.9-16.8,1.3-3.7-1.7-7.2-4.3-12-2.1-.2.9-.7,1.9-.7,3,0,6.6,0,13.3,0,20Z"/>
    </g>
  </g>
  <g>
    <path d="M119.1,384.1h-56.7v-96.8h56.7v19.9h-35.6v19.3h33.5v18.1h-33.5v19.7h35.6v19.9Z"/>
    <path d="M186.2,384.1h-55.2v-96.8h21v77h34.2v19.9Z"/>
    <path d="M249.8,384.1v-39h-32.9v39h-21v-96.8h21v38h32.9v-38h21v96.8h-21Z"/>
    <path d="M362.6,335.7c0,30.9-15.8,50-40.8,50s-40.9-19.2-40.9-50,15.8-50.1,40.9-50.1,40.8,19.3,40.8,50.1ZM302.4,335.7c0,18.4,7.6,30.1,19.4,30.1s19.4-11.7,19.4-30.1-7.7-30.1-19.4-30.1-19.4,11.7-19.4,30.1Z"/>
    <path d="M406.5,287.3c25,0,39.6,17,39.6,47.8s-14.7,49-39.6,49h-33.6v-96.8h33.6ZM393.9,364.3h9.8c13.7,0,21-9.7,21-29s-7.7-28-21-28h-9.8v57.1Z"/>
    <path d="M501.4,362.8h-27l-5.3,21.3h-21.4l27.8-96.8h25.7l27.8,96.8h-22.3l-5.2-21.3ZM478.4,345.1h18.8l-9.2-37.3h-.5l-9.2,37.3Z"/>
  </g>
  <g>
    <path d="M70.5,451.9v-29.1h-10.1v-7.5h29.5v7.5h-10.1v29.1h-9.3Z"/>
    <path d="M103.1,451.9h-9.3v-36.6h15.7c9.1,0,14,4.5,14,12.1s-2.3,8.6-6.3,10.3l7.3,14.2h-10.4l-6.3-12.8h-4.7v12.8ZM103.1,432.8h5.5c3.4,0,5.5-2,5.5-5.2s-2.2-5.2-5.5-5.2h-5.4v10.4Z"/>
    <path d="M150,443.9h-12l-2.3,8h-9.5l12.3-36.6h11.4l12.3,36.6h-9.9l-2.3-8ZM139.8,437.2h8.3l-4.1-14.1h-.2l-4.1,14.1Z"/>
    <path d="M180.5,415.3c11.1,0,17.5,6.4,17.5,18.1s-6.5,18.5-17.5,18.5h-14.9v-36.6h14.9ZM175,444.4h4.3c6.1,0,9.3-3.7,9.3-11s-3.4-10.6-9.3-10.6h-4.3v21.6Z"/>
    <path d="M227.7,451.9h-25.1v-36.6h25.1v7.5h-15.8v7.3h14.8v6.8h-14.8v7.5h15.8v7.5Z"/>
    <path d="M265.9,449.2c-2.5,2.1-6.6,3.4-11.1,3.4-8,0-13-3.9-13-10.2s2-7,6.6-9.5c.2-.1,1.7-1,1.8-1-3.3-3.4-4.5-5.6-4.5-8.3,0-5,4.6-8.7,11-8.7s10.7,3.4,10.7,8.5-2.4,6.9-7.2,9.6l5.9,6.3c.7-1.2,1.1-3,1.1-5.4v-2.4h7.2v3c0,3.9-1.2,7.6-3.1,10.1l7,7.3h-9.6l-2.5-2.7ZM249.9,441.7c0,2.8,2.3,4.7,5.8,4.7s4.5-.8,5.7-2.1l-7.4-7.9c-.3.1-.7.3-.9.5-2.3,1.4-3.2,2.8-3.2,4.8ZM260,424.1c0-2.1-1.4-3.5-3.5-3.5s-3.6,1.5-3.6,3.5.8,2.8,3.1,5c2.7-1.4,4-3,4-5Z"/>
    <path d="M298,441.3c.3,2.5,3.1,4.2,6.6,4.2s6-1.6,6-3.8-1.5-3-5.7-3.9l-4.8-.9c-6.7-1.3-10.2-4.9-10.2-10.5s6.1-11.7,14.6-11.7,14.6,4.4,14.7,11.3h-8.6c-.2-2.7-2.6-4.3-6-4.3s-5.4,1.5-5.4,3.7,1.6,3.1,5.5,3.9l4.7.9c7.2,1.4,10.5,4.7,10.5,10.4s-6,11.9-15.4,11.9-15.1-4.1-15.2-11.2h8.9Z"/>
    <path d="M333.5,438c0,4.3,2.3,6.8,6.5,6.8s6.4-2.5,6.4-6.8v-22.6h9.3v23.6c0,8.2-6.2,13.6-15.7,13.6s-15.8-5.4-15.8-13.6v-23.6h9.3v22.6Z"/>
    <path d="M377.1,415.3c7.9,0,13.2,5.1,13.2,13s-5.6,12.9-13.7,12.9h-6v10.7h-9.3v-36.6h15.8ZM370.5,434.2h4c4,0,6.3-2.1,6.3-5.9s-2.3-5.9-6.2-5.9h-4.1v11.7Z"/>
    <path d="M410.3,415.3c7.9,0,13.2,5.1,13.2,13s-5.6,12.9-13.7,12.9h-6v10.7h-9.3v-36.6h15.8ZM403.7,434.2h4c4,0,6.3-2.1,6.3-5.9s-2.3-5.9-6.2-5.9h-4.1v11.7Z"/>
    <path d="M452,451.9h-24.4v-36.6h9.3v29.1h15.1v7.5Z"/>
    <path d="M456.3,451.9v-36.6h9.3v36.6h-9.3Z"/>
    <path d="M496.2,451.9h-25.1v-36.6h25.1v7.5h-15.8v7.3h14.8v6.8h-14.8v7.5h15.8v7.5Z"/>
    <path d="M509.1,441.3c.3,2.5,3.1,4.2,6.6,4.2s6-1.6,6-3.8-1.5-3-5.7-3.9l-4.8-.9c-6.7-1.3-10.2-4.9-10.2-10.5s6.1-11.7,14.6-11.7,14.6,4.4,14.7,11.3h-8.6c-.2-2.7-2.6-4.3-6-4.3s-5.4,1.5-5.4,3.7,1.6,3.1,5.5,3.9l4.7.9c7.2,1.4,10.5,4.7,10.5,10.4s-6,11.9-15.4,11.9-15.1-4.1-15.2-11.2h8.9Z"/>
  </g>
</svg>